<svg aria-hidden="true" style="width:0;height:0;position:absolute;overflow:hidden" xmlns="http://www.w3.org/2000/svg"><defs><symbol id="icon-arrow-down" viewBox="0 0 32 32"><path d="M0 .235h31.529v31.529H0z"/><path stroke-width=".471" d="M15.529 9.412v13.176m0 0-3.294-3.384m3.294 3.384 3.294-3.384"/></symbol><symbol id="icon-twitter" viewBox="0 0 32 32"><path d="m28.203 7.186-.015-.061a6.803 6.803 0 0 0 2.923-3.639l.014-.048a13.403 13.403 0 0 1-4.162 1.61l-.088.015C25.678 3.786 24.078 3 22.188 3c-3.623 0-6.624 2.934-6.624 6.563 0 .516.072 1.023.186 1.5v.063c-5.398-.309-10.29-3.055-13.5-7-.563.97-.875 2.357-.875 3.562 0 1.875 1.113 4.387 2.876 5.562v.125c-1.052-.042-2.129-.767-3.001-1.249 0 .028.039.063.039.092 0 3.185 2.333 5.931 5.337 6.534a7.908 7.908 0 0 1-1.813.25c-.424 0-.849-.111-1.249-.189.835 2.611 3.249 4.313 6.125 4.313v.063c-2.239 1.735-5.074 2.937-8.125 2.937-.529 0-1.187-.063-1.562-.125 2.902 1.864 6.353 3.001 10.062 3.001 12.074 0 18.688-9.938 18.688-18.625v-.875c1.284-.928 2.372-2.18 3.25-3.501 0 0-2.304 1.092-3.797 1.187zm-1.953 3.189c0 1.875-.367 3.846-1.063 5.696a16.72 16.72 0 0 1-3.14 5.235l.015-.017c-2.106 2.378-5.898 5.212-12 5.212-.178 0-.358-.003-.537-.01.59-.341 1.155-.722 1.695-1.141l.968-.75v-3.975l-1.03-.011a2.056 2.056 0 0 1-2.033-2.055v-2.045l-1.352-.305a1.315 1.315 0 0 1-1.023-1.28V13.19l-.032-1.274-1.112-.743a5.132 5.132 0 0 1-1.211-1.576l-.013-.03c3.279 2.393 7.176 3.825 11.225 4.056l2.643.152V10.77l-.07-.288a3.886 3.886 0 0 1-.12-.914v-.003a4 4 0 0 1 1.21-2.862 4.115 4.115 0 0 1 2.911-1.201h.004c1.107 0 2.073.429 2.866 1.273l.637.68.077.298.017.061.466 1.806v.757z"/></symbol><symbol id="icon-telephone" viewBox="0 0 32 32"><path d="M4.239 9.065c-1.311 1.313-2.121 3.126-2.121 5.128s.81 3.814 2.121 5.128l1.502-1.502c-.926-.928-1.499-2.21-1.499-3.625s.573-2.697 1.499-3.626c.928-.926 2.21-1.499 3.625-1.499s2.697.573 3.626 1.499l1.502-1.502c-1.313-1.311-3.126-2.121-5.128-2.121s-3.814.81-5.128 2.121z"/><path d="M7.23 12.03c-.552.553-.893 1.316-.893 2.158s.341 1.605.893 2.158l1.502-1.5a.918.918 0 0 1 0-1.314.918.918 0 0 1 1.314 0l1.5-1.502c-.553-.552-1.316-.893-2.158-.893s-1.605.341-2.158.893zm18.649-3.682-3.563-3.552-7.401 7.39 2.871 2.963c-.482.853-1.525 2.488-3.304 4.267a20.67 20.67 0 0 1-4.19 3.268l-.096.052-2.904-2.867L.007 27.11l3.543 3.567a4.488 4.488 0 0 0 5.129.875c2.616-1.271 6.56-3.614 10.511-7.565 3.953-3.949 6.295-7.896 7.563-10.511a4.441 4.441 0 0 0 .448-1.944 4.505 4.505 0 0 0-1.321-3.185zm-1.036 4.202c-1.199 2.468-3.415 6.197-7.155 9.939-3.742 3.742-7.471 5.956-9.939 7.153a2.355 2.355 0 0 1-2.697-.461l-2.046-2.059 4.288-4.262 2.475 2.44.663-.294c.107-.049 2.667-1.207 5.553-4.09 2.884-2.886 4.019-5.423 4.066-5.53l.286-.653-2.441-2.522 4.422-4.414 2.061 2.054c.715.715.902 1.801.465 2.699z"/></symbol><symbol id="icon-shopping-bag" viewBox="0 0 32 32"><path d="M31.793 10.965a.708.708 0 0 0-.596-.197h.004-8.489V7.017a6.712 6.712 0 1 0-13.424 0v3.751H.799c-.237 0-.473 0-.592.197a.67.67 0 0 0-.197.597l-.001-.004 2.96 16.188c.421 2.235 2.339 3.909 4.656 3.948H24.37a4.86 4.86 0 0 0 4.654-3.957l.005-.03 2.961-16.149a.67.67 0 0 0-.197-.593zM10.867 7.017a5.133 5.133 0 1 1 10.266 0v3.751H10.866V7.017zm16.584 20.494a3.165 3.165 0 0 1-3.078 2.605H7.63a3.161 3.161 0 0 1-3.077-2.587l-.003-.019-2.803-15.161h28.507L27.451 27.51z"/><path d="M21.923 20.047a.789.789 0 0 0 .789-.789v-2.369a.789.789 0 1 0-1.578 0v2.369c0 .436.353.789.789.789zm-11.846 0a.789.789 0 0 0 .789-.789v-2.369a.789.789 0 1 0-1.578 0v2.369c0 .436.353.789.789.789z"/></symbol><symbol id="icon-logo" viewBox="0 0 32 32"><path d="m27.542 28.992-.458-2.14c-1.016-4.669-2.799-8.795-5.229-12.454l.083.134v-3.473a4.68 4.68 0 0 0 1.875-3.748V5.437a.937.937 0 0 0-.937-.937H21.938V.936a.94.94 0 0 0-1.876-.002v3.574a5.315 5.315 0 0 0-4.051 2.276L16 6.802a5.314 5.314 0 0 0-4.048-2.293l-.015-.001V.937a.938.938 0 0 0-1.876 0v3.562h-.937a.938.938 0 0 0-.937.937v1.875c0 1.53.737 2.892 1.875 3.748v3.471c-2.346 3.525-4.129 7.651-5.101 12.08l-.044.24-.458 2.139a.938.938 0 0 0 .59 1.076l.006.002c3.25 1.223 7.007 1.932 10.929 1.932H16h-.001.014c3.923 0 7.681-.709 11.153-2.005l-.22.072a.94.94 0 0 0 .594-1.081l.001.006zM20.375 6.374h1.562v.938a2.816 2.816 0 0 1-2.812 2.812h-2.188v-.312a3.442 3.442 0 0 1 3.438-3.438zm-10.313 0h1.563a3.442 3.442 0 0 1 3.438 3.438v.313h-2.189a2.816 2.816 0 0 1-2.812-2.812v-.938zM12.876 12h6.249c.321 0 .635-.032.938-.095v1.97h-8.125v-1.971c.303.063.617.095.938.095zM16 30.125c-3.254 0-6.456-.521-9.536-1.549l.287-1.331c.947-4.353 2.594-8.202 4.836-11.625l-.08.131h8.988c2.161 3.293 3.808 7.141 4.713 11.267l.042.227.285 1.331c-2.839.982-6.111 1.549-9.516 1.549h-.02H16z"/></symbol><symbol id="icon-instagram" viewBox="0 0 31 32"><path d="M21.718.696H8.89A8.901 8.901 0 0 0 0 9.586v12.828a8.901 8.901 0 0 0 8.89 8.89h12.828a8.901 8.901 0 0 0 8.89-8.89V9.586a8.901 8.901 0 0 0-8.89-8.89h-.001zm6.499 21.718a6.507 6.507 0 0 1-6.5 6.499H8.892a6.508 6.508 0 0 1-6.5-6.5V9.588a6.507 6.507 0 0 1 6.498-6.5h12.825a6.508 6.508 0 0 1 6.5 6.5v12.825z"/><path d="M15.304 7.75c-4.55 0-8.25 3.701-8.25 8.25s3.701 8.25 8.25 8.25c4.55 0 8.25-3.701 8.25-8.25s-3.701-8.25-8.25-8.25zm0 14.107A5.865 5.865 0 0 1 9.447 16a5.865 5.865 0 0 1 5.857-5.857A5.865 5.865 0 0 1 21.161 16a5.865 5.865 0 0 1-5.857 5.857zm8.37-13.031a1.197 1.197 0 0 0 0-2.394 1.197 1.197 0 0 0 0 2.394z"/></symbol><symbol id="icon-facebook" viewBox="0 0 32 32"><path d="M28.251 0H3.748A3.755 3.755 0 0 0-.001 3.748v24.503A3.755 3.755 0 0 0 3.747 32H28.25a3.755 3.755 0 0 0 3.749-3.748V3.749A3.755 3.755 0 0 0 28.251 0zm1.25 28.251c0 .687-.562 1.25-1.25 1.25h-7.375v-9.128h4l.466-3.875h-4.466v-4.186c0-1.068.808-1.874 1.874-1.874h2.813V6.811c-.739-.104-2.167-.248-2.811-.248-1.458 0-2.92.614-4.009 1.687-1.123 1.105-1.742 2.551-1.742 4.073V16.5h-4.064v3.875h4.062V29.5H3.749a1.252 1.252 0 0 1-1.25-1.249v-24.5c0-.689.561-1.25 1.25-1.25h24.5c.689 0 1.25.561 1.25 1.25v24.5z"/></symbol><symbol id="icon-close" viewBox="0 0 32 32"><path stroke-width="2" d="m2 2 29 29m0-29L2 31"/></symbol></defs></svg>