<svg aria-hidden="true" style="position: absolute; width: 0; height: 0; overflow: hidden;" version="1.1" xmlns="http://www.w3.org/2000/svg" xmlns:xlink="http://www.w3.org/1999/xlink">
<defs>
<symbol id="icon-arrow-down" viewBox="0 0 32 32">
<path d="M0 0.235h31.529v31.529h-31.529z"></path>
<path stroke-width="0.4706" stroke-miterlimit="4" stroke-linecap="butt" stroke-linejoin="miter" d="M15.529 9.412v13.176M15.529 22.588l-3.294-3.384M15.529 22.588l3.294-3.384"></path>
</symbol>
<symbol id="icon-twitter" viewBox="0 0 32 32">
<path d="M28.203 7.186l-0.015-0.061c1.376-0.839 2.412-2.119 2.923-3.639l0.014-0.048c-1.224 0.734-2.647 1.298-4.162 1.61l-0.088 0.015c-1.197-1.277-2.797-2.063-4.687-2.063-3.623 0-6.624 2.934-6.624 6.563 0 0.516 0.072 1.023 0.186 1.5v0.063c-5.398-0.309-10.29-3.055-13.5-7-0.563 0.97-0.875 2.357-0.875 3.562 0 1.875 1.113 4.387 2.876 5.562v0.125c-1.052-0.042-2.129-0.767-3.001-1.249 0 0.028 0.039 0.063 0.039 0.092 0 3.185 2.333 5.931 5.337 6.534-0.523 0.139-1.261 0.25-1.813 0.25-0.424 0-0.849-0.111-1.249-0.189 0.835 2.611 3.249 4.313 6.125 4.313v0.063c-2.239 1.735-5.074 2.937-8.125 2.937-0.529 0-1.187-0.063-1.562-0.125 2.902 1.864 6.353 3.001 10.062 3.001 12.074 0 18.688-9.938 18.688-18.625v-0.875c1.284-0.928 2.372-2.18 3.25-3.501 0 0-2.304 1.092-3.797 1.187zM26.25 10.375c0 1.875-0.367 3.846-1.063 5.696-0.76 2.011-1.818 3.743-3.14 5.235l0.015-0.017c-2.106 2.378-5.898 5.212-12 5.212-0.178 0-0.358-0.003-0.537-0.010 0.59-0.341 1.155-0.722 1.695-1.141l0.968-0.75v-3.975l-1.030-0.011c-1.125-0.013-2.033-0.928-2.033-2.055 0-0 0-0 0-0v0-2.045l-1.352-0.305c-0.59-0.137-1.023-0.658-1.023-1.28 0-0 0-0 0-0v0-1.739l-0.032-1.274-1.112-0.743c-0.503-0.443-0.914-0.976-1.211-1.576l-0.013-0.030c3.279 2.393 7.176 3.825 11.225 4.056l2.643 0.152v-3.005l-0.070-0.288c-0.072-0.274-0.115-0.589-0.12-0.914l-0-0.003c0-1.077 0.431-2.093 1.21-2.862 0.746-0.742 1.775-1.201 2.911-1.201 0.001 0 0.003 0 0.004 0h-0c1.107 0 2.073 0.429 2.866 1.273l0.637 0.68 0.077 0.298 0.017 0.061 0.466 1.806v0.757z"></path>
</symbol>
<symbol id="icon-telephone" viewBox="0 0 32 32">
<path d="M4.239 9.065c-1.311 1.313-2.121 3.126-2.121 5.128s0.81 3.814 2.121 5.128l-0-0 1.502-1.502c-0.926-0.928-1.499-2.21-1.499-3.625s0.573-2.697 1.499-3.626l-0 0c0.928-0.926 2.21-1.499 3.625-1.499s2.697 0.573 3.626 1.499l-0-0 1.502-1.502c-1.313-1.311-3.126-2.121-5.128-2.121s-3.814 0.81-5.128 2.121l0-0z"></path>
<path d="M7.23 12.030c-0.552 0.553-0.893 1.316-0.893 2.158s0.341 1.605 0.893 2.158l-0-0 1.502-1.5c-0.17-0.167-0.275-0.4-0.275-0.657s0.105-0.49 0.275-0.657l0-0c0.167-0.17 0.4-0.275 0.657-0.275s0.49 0.105 0.657 0.275l0 0 1.5-1.502c-0.553-0.552-1.316-0.893-2.158-0.893s-1.605 0.341-2.158 0.893l0-0zM25.879 8.348l-3.563-3.552-7.401 7.39 2.871 2.963c-0.482 0.853-1.525 2.488-3.304 4.267-1.248 1.262-2.655 2.362-4.19 3.268l-0.096 0.052-2.904-2.867-7.285 7.241 3.543 3.567c1.355 1.355 3.416 1.707 5.129 0.875 2.616-1.271 6.56-3.614 10.511-7.565 3.953-3.949 6.295-7.896 7.563-10.511 0.301-0.619 0.448-1.284 0.448-1.944 0-1.167-0.456-2.319-1.321-3.185zM24.843 12.55c-1.199 2.468-3.415 6.197-7.155 9.939-3.742 3.742-7.471 5.956-9.939 7.153-0.299 0.147-0.652 0.234-1.024 0.234-0.654 0-1.245-0.266-1.673-0.695l-0-0-2.046-2.059 4.288-4.262 2.475 2.44 0.663-0.294c0.107-0.049 2.667-1.207 5.553-4.090 2.884-2.886 4.019-5.423 4.066-5.53l0.286-0.653-2.441-2.522 4.422-4.414 2.061 2.054c0.715 0.715 0.902 1.801 0.465 2.699z"></path>
</symbol>
<symbol id="icon-shopping-bag" viewBox="0 0 32 32">
<path d="M31.793 10.965c-0.128-0.126-0.304-0.204-0.498-0.204-0.033 0-0.066 0.002-0.098 0.007l0.004-0h-8.489v-3.751c0-3.707-3.005-6.712-6.712-6.712s-6.712 3.005-6.712 6.712v0 3.751h-8.489c-0.237 0-0.473 0-0.592 0.197-0.127 0.122-0.206 0.294-0.206 0.484 0 0.038 0.003 0.076 0.009 0.113l-0.001-0.004 2.96 16.188c0.421 2.235 2.339 3.909 4.656 3.948l0.004 0h16.741c2.325-0.059 4.24-1.743 4.654-3.957l0.005-0.030 2.961-16.149c0.006-0.033 0.009-0.071 0.009-0.109 0-0.19-0.079-0.362-0.206-0.484l-0-0zM10.867 7.017c0-2.835 2.298-5.133 5.133-5.133s5.133 2.298 5.133 5.133v0 3.751h-10.267v-3.751zM27.451 27.511c-0.271 1.48-1.544 2.59-3.078 2.605h-16.743c-1.537-0.016-2.81-1.126-3.077-2.587l-0.003-0.019-2.803-15.161h28.507l-2.803 15.161z"></path>
<path d="M21.923 20.047c0.436 0 0.789-0.353 0.789-0.789v-2.369c0-0.436-0.353-0.789-0.789-0.789s-0.789 0.353-0.789 0.789v2.369c0 0.436 0.353 0.789 0.789 0.789zM10.077 20.047c0.436 0 0.789-0.353 0.789-0.789v-2.369c0-0.436-0.353-0.789-0.789-0.789s-0.789 0.353-0.789 0.789v0 2.369c0 0.436 0.353 0.789 0.789 0.789z"></path>
</symbol>
<symbol id="icon-logo" viewBox="0 0 32 32">
<path d="M27.542 28.992l-0.458-2.14c-1.016-4.669-2.799-8.795-5.229-12.454l0.083 0.134v-3.473c1.144-0.863 1.875-2.22 1.875-3.748v-1.874c0 0 0 0 0 0 0-0.517-0.419-0.937-0.937-0.937-0 0-0.001 0-0.001 0h-0.937v-3.564c-0.019-0.503-0.432-0.904-0.938-0.904s-0.918 0.401-0.938 0.902l-0 0.002v3.572c-1.687 0.103-3.151 0.98-4.051 2.276l-0.011 0.018c-0.912-1.314-2.375-2.191-4.048-2.293l-0.015-0.001v-3.571c0-0.518-0.42-0.938-0.938-0.938s-0.938 0.42-0.938 0.938v0 3.562h-0.936c-0 0-0.001 0-0.001 0-0.517 0-0.937 0.42-0.937 0.937v0 1.875c0 1.53 0.737 2.892 1.875 3.748v3.471c-2.346 3.525-4.129 7.651-5.101 12.080l-0.044 0.24-0.458 2.139c-0.013 0.059-0.021 0.127-0.021 0.197 0 0.403 0.254 0.746 0.611 0.879l0.006 0.002c3.25 1.223 7.007 1.932 10.929 1.932 0.005 0 0.011 0 0.016 0h-0.001c0.004 0 0.009 0 0.014 0 3.923 0 7.681-0.709 11.153-2.005l-0.22 0.072c0.362-0.135 0.616-0.478 0.616-0.88 0-0.069-0.007-0.136-0.022-0.201l0.001 0.006zM20.375 6.374h1.562v0.938c-0.002 1.552-1.26 2.81-2.812 2.812h-2.188v-0.312c0.002-1.898 1.54-3.436 3.438-3.438h0zM10.062 6.374h1.563c1.898 0.002 3.436 1.54 3.438 3.438v0.313h-2.189c-1.552-0.002-2.81-1.26-2.812-2.812v-0.938zM12.876 12h6.249c0.321 0 0.635-0.032 0.938-0.095v1.97h-8.125v-1.971c0.303 0.063 0.617 0.095 0.938 0.095zM16 30.125c-3.254 0-6.456-0.521-9.536-1.549l0.287-1.331c0.947-4.353 2.594-8.202 4.836-11.625l-0.080 0.131h8.988c2.161 3.293 3.808 7.141 4.713 11.267l0.042 0.227 0.285 1.331c-2.839 0.982-6.111 1.549-9.516 1.549-0.007 0-0.013 0-0.020 0h0.001z"></path>
</symbol>
<symbol id="icon-instagram" viewBox="0 0 31 32">
<path d="M21.718 0.696h-12.828c-4.907 0.006-8.884 3.983-8.89 8.89v12.828c0.006 4.907 3.983 8.884 8.89 8.89h12.828c4.907-0.006 8.884-3.983 8.89-8.89v-12.828c-0.006-4.907-3.983-8.884-8.89-8.89h-0.001zM28.217 22.414c-0.005 3.588-2.912 6.495-6.5 6.499h-12.825c-3.588-0.004-6.496-2.912-6.5-6.5v-12.825c0.004-3.588 2.911-6.495 6.498-6.5h12.825c3.588 0.004 6.496 2.912 6.5 6.5v12.825z"></path>
<path d="M15.304 7.75c-4.55 0-8.25 3.701-8.25 8.25s3.701 8.25 8.25 8.25c4.55 0 8.25-3.701 8.25-8.25s-3.701-8.25-8.25-8.25zM15.304 21.857c-3.233-0.005-5.853-2.624-5.857-5.857v-0c0.005-3.233 2.624-5.853 5.857-5.857h0c3.233 0.005 5.853 2.624 5.857 5.857v0c-0.005 3.233-2.624 5.853-5.857 5.857h-0zM23.674 8.826c0.661 0 1.197-0.536 1.197-1.197s-0.536-1.197-1.197-1.197v0c-0.661 0-1.197 0.536-1.197 1.197s0.536 1.197 1.197 1.197v0z"></path>
</symbol>
<symbol id="icon-facebook" viewBox="0 0 32 32">
<path d="M28.251 0h-24.503c-2.069 0.003-3.745 1.68-3.749 3.748v24.503c0.003 2.069 1.68 3.745 3.748 3.749h24.503c2.069-0.003 3.745-1.68 3.749-3.748v-24.503c-0.003-2.069-1.68-3.745-3.748-3.749h-0zM29.501 28.251c0 0.687-0.562 1.25-1.25 1.25h-7.375v-9.128h4l0.466-3.875h-4.466v-4.186c0-1.068 0.808-1.874 1.874-1.874h2.813v-3.627c-0.739-0.104-2.167-0.248-2.811-0.248-1.458 0-2.92 0.614-4.009 1.687-1.123 1.105-1.742 2.551-1.742 4.073v4.177h-4.064v3.875h4.062v9.125h-13.25c-0.69-0.001-1.249-0.56-1.25-1.249v-24.5c0-0.689 0.561-1.25 1.25-1.25h24.5c0.689 0 1.25 0.561 1.25 1.25v24.5z"></path>
</symbol>
<symbol id="icon-close" viewBox="0 0 32 32">
<path stroke-width="2" stroke-miterlimit="4" stroke-linecap="butt" stroke-linejoin="miter" d="M2 2l29 29M31 2l-29 29"></path>
</symbol>
</defs>
</svg>
